<svg width="20" height="20" viewBox="0 0 20 20" fill="none" xmlns="http://www.w3.org/2000/svg">
<path d="M20 3.75V16.25C20 17.6562 18.8672 18.75 17.5 18.75H2.5C1.09375 18.75 0 17.6562 0 16.25L0 3.75C0 2.38281 1.09375 1.25 2.5 1.25H17.5C18.8672 1.25 20 2.38281 20 3.75ZM11.25 3.75H2.5V16.25H11.25V3.75ZM16.5625 3.75H14.6875C14.1406 3.75 13.75 4.17969 13.75 4.6875C13.75 5.23438 14.1406 5.625 14.6875 5.625H16.5625C17.0703 5.625 17.5 5.23438 17.5 4.6875C17.5 4.17969 17.0703 3.75 16.5625 3.75ZM17.5 8.4375C17.5 7.92969 17.0703 7.5 16.5625 7.5H14.6875C14.1406 7.5 13.75 7.92969 13.75 8.4375C13.75 8.98438 14.1406 9.375 14.6875 9.375H16.5625C17.0703 9.375 17.5 8.98438 17.5 8.4375ZM16.5625 11.25H14.6875C14.1406 11.25 13.75 11.6797 13.75 12.1875C13.75 12.7344 14.1406 13.125 14.6875 13.125H16.5625C17.0703 13.125 17.5 12.7344 17.5 12.1875C17.5 11.6797 17.0703 11.25 16.5625 11.25Z" fill="#545454"/>
</svg>
