<svg width="154" height="39" viewBox="0 0 154 39" fill="none" xmlns="http://www.w3.org/2000/svg">
<path d="M22.6777 10.0029C24.8643 9.94126 26.9824 10.7959 28.5498 12.3711C30.117 13.9463 31.0008 16.109 31 18.3672V27.8457C31 28.1537 30.8809 28.4492 30.6689 28.666C30.4569 28.8828 30.1695 29.003 29.8711 29C29.578 29.0001 29.2974 28.8768 29.0938 28.6592C28.8902 28.4416 28.7808 28.148 28.791 27.8457V18.0215C28.8075 16.3599 28.1704 14.7624 27.0254 13.5947C25.8801 12.427 24.3241 11.7883 22.7148 11.8262C21.101 11.7856 19.5403 12.422 18.3877 13.5889C17.235 14.7559 16.5889 16.3547 16.5967 18.0215V27.8291C16.6027 28.4538 16.1215 28.968 15.5166 28.9834C14.8977 28.9805 14.3936 28.4679 14.3818 27.8291V18.0215C14.3894 16.3597 13.7473 14.7648 12.6006 13.5986C11.4538 12.4325 9.8994 11.7931 8.29004 11.8262C6.6827 11.7914 5.13021 12.4313 3.9873 13.5986C2.8445 14.766 2.20818 16.3618 2.22461 18.0215V27.8291C2.22457 28.4634 1.72672 28.9775 1.1123 28.9775C0.497996 28.9774 3.59377e-05 28.4633 0 27.8291V18.3506C0.00351421 16.0941 0.889839 13.9341 2.45801 12.3623C4.02616 10.7906 6.14344 9.93975 8.32812 10.0029C11.2634 9.96845 13.9925 11.5573 15.4834 14.168C16.9963 11.561 19.7342 9.97618 22.6777 10.0029ZM43.9805 10C49.5078 10 53.9998 14.1688 54 19.4746C54 24.7806 49.5468 29 43.9805 29V28.9717C38.314 28.9717 34.0001 24.7698 34 19.4473C34 14.1246 38.4531 10 43.9805 10ZM73.8975 4C74.5064 4.0001 75 4.49731 75 5.11035V27.8398C75 28.4529 74.5064 28.9501 73.8975 28.9502C73.2884 28.9502 72.7949 28.4529 72.7949 27.8398V25.3701C71.8741 26.8133 69.4531 29 65.373 29C62.0245 29 58.9302 27.2016 57.2559 24.2822C55.5815 21.3627 55.5815 17.7652 57.2559 14.8457C58.9302 11.9263 62.0245 10.128 65.373 10.1279C69.453 10.1279 71.9127 12.2756 72.7949 13.7188V5.11035C72.7949 4.49725 73.2884 4 73.8975 4ZM80.998 10.457C81.6709 10.457 82.2168 10.9454 82.2168 11.5479V27.9092C82.2168 28.5116 81.6709 29 80.998 29C80.3252 29 79.7793 28.5116 79.7793 27.9092V11.5479C79.7793 10.9454 80.3252 10.4571 80.998 10.457ZM94.9775 10C100.529 10 105 14.1688 105 19.4746C105 24.7806 100.573 29 94.9775 29V28.9717C89.3096 28.9716 85.0001 24.7698 85 19.4473C85 14.1247 89.4264 10.0001 94.9775 10ZM65.4502 11.8818C63.4699 11.9096 61.5822 12.7302 60.2041 14.1621C58.826 15.5942 58.0712 17.5201 58.1064 19.5137C58.1064 23.6655 61.1827 27.2851 65.4502 27.2852C69.7178 27.2852 72.7949 24.0652 72.7949 19.5137C72.7948 14.9956 69.6019 11.8818 65.4502 11.8818ZM43.9805 11.7832C39.7268 11.8295 36.3148 15.3171 36.3555 19.5762C36.3964 23.8355 39.875 27.2574 44.1289 27.2217C48.3828 27.1859 51.8038 23.7066 51.7734 19.4473C51.7723 17.3909 50.9467 15.4204 49.4814 13.9795C48.0162 12.5386 46.0339 11.7473 43.9805 11.7832ZM94.9775 11.7832C90.7188 11.8142 87.2915 15.2956 87.3223 19.5586C87.3532 23.8215 90.8303 27.2522 95.0889 27.2217C99.3476 27.1909 102.776 23.7102 102.745 19.4473C102.744 17.3959 101.921 15.4303 100.462 13.9902C99.0023 12.5501 97.0268 11.7549 94.9775 11.7832ZM80.998 5.00293C81.6993 4.96729 82.3648 5.28186 82.7275 5.82031C83.0902 6.35896 83.0902 7.03362 82.7275 7.57227C82.3648 8.11063 81.6992 8.42529 80.998 8.38965C80.4794 8.39987 79.9773 8.22545 79.6025 7.9043C79.2278 7.58311 79.0112 7.14111 79 6.67676C79.0431 5.72368 79.933 4.97832 80.998 5.00293Z" fill="white"/>
<path fill-rule="evenodd" clip-rule="evenodd" d="M138.827 1.03036V9.69844H138.86C138.856 10.0742 138.644 10.4173 138.31 10.591L131.815 14.1666C131.483 14.358 131.075 14.3635 130.738 14.1813C130.401 13.9991 130.184 13.6553 130.164 13.2741V1.03036C130.17 0.747589 130.29 0.479017 130.497 0.285306C130.704 0.091594 130.981 -0.010918 131.265 0.000922794H137.726C138.01 -0.010918 138.287 0.091594 138.494 0.285306C138.701 0.479017 138.821 0.747589 138.827 1.03036ZM130.164 37.9696V29.3016C130.168 28.9258 130.38 28.5827 130.715 28.409L137.236 24.8279C137.566 24.6496 137.965 24.6511 138.294 24.8318C138.622 25.0125 138.836 25.3475 138.86 25.7204V37.9696C138.854 38.2524 138.734 38.521 138.527 38.7147C138.32 38.9084 138.043 39.0109 137.759 38.9991H131.265C130.981 39.0109 130.704 38.9084 130.497 38.7147C130.29 38.521 130.17 38.2524 130.164 37.9696ZM141.276 27.971L149.135 32.2913C149.649 32.5788 150.299 32.4122 150.61 31.9135L153.857 26.5527C153.999 26.3155 154.037 26.0305 153.962 25.7644C153.888 25.4984 153.706 25.2746 153.461 25.1455L142.327 19.0455C141.998 18.8701 141.602 18.8724 141.276 19.0515C140.949 19.2307 140.736 19.5623 140.709 19.9326V27.051C140.714 27.4264 140.925 27.7689 141.259 27.9436L141.276 27.971ZM119.867 6.69774L127.754 11.029L127.743 11.0564C128.077 11.2311 128.288 11.5736 128.293 11.949V19.0674C128.267 19.4377 128.053 19.7693 127.727 19.9485C127.4 20.1276 127.004 20.1299 126.675 19.9545L115.542 13.8381C115.295 13.7102 115.112 13.4864 115.037 13.2198C114.962 12.9533 115.001 12.6677 115.145 12.4308L118.392 7.07009C118.705 6.57339 119.355 6.40931 119.867 6.69774ZM145.569 18.1749L153.45 13.8436C153.695 13.7145 153.877 13.4907 153.951 13.2246C154.026 12.9585 153.988 12.6735 153.846 12.4363L150.599 7.07557C150.286 6.57887 149.636 6.41478 149.124 6.70322L138.001 12.8141C137.668 12.988 137.458 13.3319 137.458 13.7067C137.458 14.0815 137.668 14.4253 138.001 14.5992L144.473 18.1694C144.814 18.365 145.234 18.365 145.574 18.1694L145.569 18.1749ZM130.995 24.4008L124.501 20.8306L124.523 20.8142C124.183 20.6185 123.763 20.6185 123.423 20.8142L115.542 25.1455C115.295 25.2734 115.112 25.4972 115.037 25.7638C114.962 26.0303 115.001 26.3159 115.145 26.5527L118.392 31.9135C118.703 32.4122 119.353 32.5788 119.867 32.2913L130.995 26.1859C131.329 26.012 131.538 25.6681 131.538 25.2933C131.538 24.9185 131.329 24.5747 130.995 24.4008Z" fill="white"/>
</svg>
